# xmcd CD database file
#
# Track frame offsets:
#	150
#	6393
#	19912
#	26291
#	34645
#	41677
#	47762
#	56357
#	63702
#	70572
#	75899
#	80872
#	89143
#	94943
#	101445
#	108747
#	115973
#	120045
#	127252
#	132406
#	137521
#	145849
#	151681
#	156855
#	162200
#	167599
#	172504
#	182161
#	189305
#	195442
#
# Disc length: 2649 seconds
#
# Revision: 0
# Processed by: cddbd v1.5.2PL0 Copyright (c) Steve Scherf et al.
# Submitted via: CDex 1.70beta2
#
DISCID=850a571e
DTITLE=Jan Robin - Kraft der Stille
DYEAR=1995
DGENRE=New Age
TTITLE0=Sarabande
TTITLE1=Spanische Romanze
TTITLE2=Estudio Nr. 1
TTITLE3=Estudio e-Moll
TTITLE4=Liebestraum
TTITLE5=Lagrima
TTITLE6=Adelita
TTITLE7=Greensleeves
TTITLE8=Scarborough Fair
TTITLE9=Für Elise
TTITLE10=Danza
TTITLE11=And. and Menuett G-Dur
TTITLE12=Menuett h-Moll
TTITLE13=Sunset
TTITLE14=Ria Benuschka
TTITLE15=Andantino D-Dur
TTITLE16=Andantino G-Dur
TTITLE17=Andante a-Moll
TTITLE18=Gigue
TTITLE19=Menuett re-mineur
TTITLE20=Menuetto von Beethoven
TTITLE21=Menuetto von Paganini
TTITLE22=Moderato C-Dur
TTITLE23=Menuett
TTITLE24=The Basket of Turf
TTITLE25=The Humors of Ballydehob
TTITLE26=The Fairies
TTITLE27=Southwind
TTITLE28=All alive
TTITLE29=Farewell
EXTD=YEAR: 1995
EXTT0=
EXTT1=
EXTT2=
EXTT3=
EXTT4=
EXTT5=
EXTT6=
EXTT7=
EXTT8=
EXTT9=
EXTT10=
EXTT11=
EXTT12=
EXTT13=
EXTT14=
EXTT15=
EXTT16=
EXTT17=
EXTT18=
EXTT19=
EXTT20=
EXTT21=
EXTT22=
EXTT23=
EXTT24=
EXTT25=
EXTT26=
EXTT27=
EXTT28=
EXTT29=
PLAYORDER=
